<svg xmlns="http://www.w3.org/2000/svg" width="800" height="600" viewBox="0 0 800 600">
  <defs>
    <linearGradient id="g" x1="0" y1="0" x2="1" y2="1">
      <stop offset="0" stop-color="#556b2f"/>
      <stop offset="1" stop-color="#9caf6a"/>
    </linearGradient>
    <pattern id="dots" width="40" height="40" patternUnits="userSpaceOnUse">
      <circle cx="4" cy="4" r="1.6" fill="white" fill-opacity="0.06"/>
    </pattern>
  </defs>
  <rect width="800" height="600" fill="url(#g)"/>
  <rect width="800" height="600" fill="url(#dots)"/>
  <g transform="translate(400,270)"><path d="M0,-18 a10,10 0 1,0 0.01,0 M-22,-4 a8,8 0 1,0 0.01,0 M22,-4 a8,8 0 1,0 0.01,0 M-14,14 a26,20 0 1,0 28,0 a26,20 0 1,0 -28,0" fill="white" fill-opacity="0.85"/></g>
  <text x="400" y="340" font-family="Georgia, serif" font-size="33" fill="white" fill-opacity="0.92" text-anchor="middle">Happy Guests</text>
</svg>